<?xml version="1.0" standalone="no"?>
<!DOCTYPE svg PUBLIC "-//W3C//DTD SVG 20010904//EN"
 "http://www.w3.org/TR/2001/REC-SVG-20010904/DTD/svg10.dtd">
<svg version="1.0" xmlns="http://www.w3.org/2000/svg"
 width="1041.000000pt" height="630.000000pt" viewBox="0 0 1041.000000 630.000000"
 preserveAspectRatio="xMidYMid meet">

<g transform="translate(0.000000,630.000000) scale(0.100000,-0.100000)"
fill="#000000" stroke="none">
<path d="M4975 5322 c-17 -10 -44 -34 -61 -53 -24 -28 -769 -1397 -876 -1610
-39 -79 -47 -162 -20 -216 26 -50 80 -96 131 -112 54 -16 1768 -16 1822 0 107
32 165 135 143 248 -8 39 -863 1631 -903 1681 -47 59 -87 80 -150 80 -37 0
-66 -6 -86 -18z m132 -139 c37 -41 873 -1605 879 -1644 4 -25 1 -41 -14 -59
l-20 -25 -890 0 c-861 0 -891 1 -911 19 -30 28 -26 70 14 149 99 194 821 1527
842 1555 30 41 66 42 100 5z"/>
<path d="M4950 4355 l0 -375 110 0 110 0 0 375 0 375 -110 0 -110 0 0 -375z"/>
<path d="M4950 3720 l0 -110 110 0 110 0 0 110 0 110 -110 0 -110 0 0 -110z"/>
<path d="M6430 3385 l0 -95 1405 0 1405 0 0 95 0 95 -1405 0 -1405 0 0 -95z"/>
<path d="M880 3365 l0 -95 1400 0 1400 0 0 95 0 95 -1400 0 -1400 0 0 -95z"/>
<path d="M1140 2787 c-106 -31 -196 -100 -234 -180 -22 -47 -36 -144 -29 -195
18 -134 89 -194 315 -268 134 -45 168 -64 168 -95 0 -65 -181 -46 -335 35 -33
17 -63 32 -67 34 -4 2 -36 -53 -70 -123 -72 -144 -76 -128 46 -176 159 -62
334 -84 467 -59 124 24 225 106 255 209 22 73 15 191 -14 247 -43 83 -110 125
-306 190 -137 45 -173 68 -161 103 18 58 157 41 313 -38 l37 -19 63 119 63
118 -38 20 c-21 10 -81 33 -133 51 -111 38 -261 50 -340 27z"/>
<path d="M8740 2786 c-164 -48 -251 -152 -259 -310 -4 -97 10 -145 56 -197 51
-56 102 -83 253 -134 137 -46 170 -65 170 -96 0 -67 -199 -42 -348 43 -29 16
-55 29 -56 27 -2 -2 -31 -59 -65 -127 l-62 -123 73 -34 c128 -61 214 -79 373
-79 123 0 147 3 199 23 69 27 127 77 164 139 21 37 27 61 30 131 5 109 -8 157
-59 215 -51 57 -106 86 -273 142 -141 48 -156 56 -156 89 0 71 133 63 292 -16
l58 -29 60 120 61 121 -63 28 c-116 53 -197 73 -303 77 -64 2 -116 -1 -145
-10z"/>
<path d="M1790 2275 l0 -515 145 0 145 0 0 160 0 160 48 0 47 0 91 -157 92
-158 161 -3 c88 -1 161 0 161 4 0 3 -48 89 -106 191 l-107 184 35 29 c19 16
50 57 69 92 32 60 34 68 34 163 0 93 -2 105 -33 167 -40 81 -111 149 -188 177
-50 19 -77 21 -324 21 l-270 0 0 -515z m504 234 c32 -38 35 -99 6 -146 l-20
-33 -100 0 -100 0 0 105 0 105 94 0 c93 0 95 0 120 -31z"/>
<path d="M2770 2275 l0 -515 370 0 370 0 0 125 0 125 -225 0 -225 0 0 80 0 80
185 0 185 0 0 115 0 115 -185 0 -185 0 0 70 0 70 215 0 215 0 0 125 0 125
-360 0 -360 0 0 -515z"/>
<path d="M4046 2282 c-97 -279 -176 -511 -176 -515 0 -4 65 -7 145 -7 l144 0
31 100 32 100 133 0 134 0 31 -100 32 -100 144 0 c79 0 144 4 144 8 0 8 -269
789 -327 950 l-26 72 -132 0 -132 0 -177 -508z m354 22 c22 -76 40 -140 40
-141 0 -2 -38 -3 -85 -3 -47 0 -85 3 -85 7 0 14 83 283 87 279 2 -2 22 -66 43
-142z"/>
<path d="M4920 2275 l0 -515 380 0 380 0 0 125 0 125 -235 0 -235 0 0 390 0
390 -145 0 -145 0 0 -515z"/>
<path d="M5770 2275 l0 -515 370 0 370 0 0 125 0 125 -225 0 -225 0 0 80 0 80
185 0 185 0 0 115 0 115 -185 0 -185 0 0 70 0 70 218 2 217 3 3 123 3 122
-366 0 -365 0 0 -515z"/>
<path d="M6640 2275 l0 -515 140 0 139 0 3 158 3 157 50 0 49 0 90 -157 90
-158 164 0 c90 0 161 3 159 8 -2 4 -50 86 -106 183 -55 97 -101 180 -101 184
0 4 18 28 41 52 67 72 94 142 94 243 0 75 -4 93 -32 152 -39 82 -97 141 -176
179 l-62 29 -272 0 -273 0 0 -515z m487 250 c46 -32 49 -129 7 -176 -15 -16
-32 -19 -116 -19 l-98 0 0 105 0 105 93 0 c67 0 99 -4 114 -15z"/>
<path d="M7522 2668 l3 -123 148 -3 147 -3 0 -389 0 -390 145 0 145 0 0 390 0
390 145 0 145 0 0 125 0 125 -440 0 -441 0 3 -122z"/>
</g>
</svg>
